<svg xmlns="http://www.w3.org/2000/svg" version="1.1" xmlns:xlink="http://www.w3.org/1999/xlink" width="1000" height="1000"><g clip-path="url(#SvgjsClipPath1083)"><rect width="1000" height="1000" fill="#ffffff"></rect><g transform="matrix(1.8,0,0,1.8,50,50)"><svg xmlns="http://www.w3.org/2000/svg" version="1.1" xmlns:xlink="http://www.w3.org/1999/xlink" width="500" height="500"><svg xmlns="http://www.w3.org/2000/svg" xmlns:xlink="http://www.w3.org/1999/xlink" width="500" zoomAndPan="magnify" viewBox="0 0 375 374.999991" height="500" preserveAspectRatio="xMidYMid meet" version="1.0"><defs><g></g><clipPath id="9c80bbc200"><path d="M 2.964844 27.101562 L 367.269531 27.101562 L 367.269531 117.015625 L 2.964844 117.015625 Z M 2.964844 27.101562 " clip-rule="nonzero"></path></clipPath><clipPath id="2e5bd4cb6e"><path d="M 0.964844 0.101562 L 365.269531 0.101562 L 365.269531 90.015625 L 0.964844 90.015625 Z M 0.964844 0.101562 " clip-rule="nonzero"></path></clipPath><clipPath id="4444a57411"><rect x="0" width="366" y="0" height="91"></rect></clipPath><clipPath id="c9ec69a2b1"><path d="M 0 0.601562 L 33 0.601562 L 33 125 L 0 125 Z M 0 0.601562 " clip-rule="nonzero"></path></clipPath><clipPath id="1e14f8740d"><path d="M -19.351562 119.058594 L 3.375 0.796875 L 32.289062 6.355469 L 9.5625 124.613281 Z M -19.351562 119.058594 " clip-rule="nonzero"></path></clipPath><clipPath id="2956f88a7d"><path d="M 0 0.601562 L 32.398438 0.601562 L 32.398438 124.679688 L 0 124.679688 Z M 0 0.601562 " clip-rule="nonzero"></path></clipPath><clipPath id="8cd6c77de8"><path d="M -19.351562 119.058594 L 3.375 0.796875 L 32.289062 6.355469 L 9.5625 124.613281 Z M -19.351562 119.058594 " clip-rule="nonzero"></path></clipPath><clipPath id="1a75f87302"><rect x="0" width="33" y="0" height="125"></rect></clipPath><clipPath id="ffafdb8e31"><rect x="0" width="274" y="0" height="64"></rect></clipPath><clipPath id="6b699f9558"><path d="M 284 1 L 320 1 L 320 149 L 284 149 Z M 284 1 " clip-rule="nonzero"></path></clipPath><clipPath id="619a6d7d1e"><path d="M 284.59375 146.90625 L 312.492188 1.742188 L 319.136719 3.019531 L 291.242188 148.183594 Z M 284.59375 146.90625 " clip-rule="nonzero"></path></clipPath><clipPath id="a289143e9c"><path d="M 0.398438 0.558594 L 35.199219 0.558594 L 35.199219 147.199219 L 0.398438 147.199219 Z M 0.398438 0.558594 " clip-rule="nonzero"></path></clipPath><clipPath id="e9e54a258c"><path d="M 0.59375 145.90625 L 28.492188 0.742188 L 35.136719 2.019531 L 7.242188 147.183594 Z M 0.59375 145.90625 " clip-rule="nonzero"></path></clipPath><clipPath id="525d107cc0"><rect x="0" width="36" y="0" height="148"></rect></clipPath><clipPath id="07f0caff10"><path d="M 298 5 L 333 5 L 333 152 L 298 152 Z M 298 5 " clip-rule="nonzero"></path></clipPath><clipPath id="97e83d4eea"><path d="M 298.390625 150.238281 L 326.289062 5.074219 L 332.933594 6.351562 L 305.035156 151.515625 Z M 298.390625 150.238281 " clip-rule="nonzero"></path></clipPath><clipPath id="e25acc6581"><path d="M 0.320312 0 L 35 0 L 35 146.558594 L 0.320312 146.558594 Z M 0.320312 0 " clip-rule="nonzero"></path></clipPath><clipPath id="c4b2172748"><path d="M 0.390625 145.238281 L 28.289062 0.0742188 L 34.933594 1.351562 L 7.035156 146.515625 Z M 0.390625 145.238281 " clip-rule="nonzero"></path></clipPath><clipPath id="25e3de90c4"><rect x="0" width="35" y="0" height="147"></rect></clipPath><clipPath id="eab5e5507a"><path d="M 312 8 L 347 8 L 347 154.921875 L 312 154.921875 Z M 312 8 " clip-rule="nonzero"></path></clipPath><clipPath id="d80e74aa3f"><path d="M 312.1875 153.570312 L 340.082031 8.40625 L 346.730469 9.683594 L 318.832031 154.847656 Z M 312.1875 153.570312 " clip-rule="nonzero"></path></clipPath><clipPath id="e907b8ff34"><path d="M 0 0.28125 L 34.800781 0.28125 L 34.800781 146.921875 L 0 146.921875 Z M 0 0.28125 " clip-rule="nonzero"></path></clipPath><clipPath id="651b947fab"><path d="M 0.1875 145.570312 L 28.082031 0.40625 L 34.730469 1.683594 L 6.832031 146.847656 Z M 0.1875 145.570312 " clip-rule="nonzero"></path></clipPath><clipPath id="f0a436dfa4"><rect x="0" width="35" y="0" height="147"></rect></clipPath><clipPath id="220e3fccec"><path d="M 346.726562 13.9375 L 368.859375 13.9375 L 368.859375 127.339844 L 346.726562 127.339844 Z M 346.726562 13.9375 " clip-rule="nonzero"></path></clipPath><clipPath id="f2d123578d"><path d="M 0.726562 0.9375 L 22.859375 0.9375 L 22.859375 114.339844 L 0.726562 114.339844 Z M 0.726562 0.9375 " clip-rule="nonzero"></path></clipPath><clipPath id="bd7993a199"><rect x="0" width="23" y="0" height="115"></rect></clipPath><clipPath id="8117190421"><rect x="0" width="16" y="0" height="109"></rect></clipPath><clipPath id="c7fe55bf62"><rect x="0" width="369" y="0" height="155"></rect></clipPath><clipPath id="SvgjsClipPath1083"><rect width="1000" height="1000" x="0" y="0" rx="500" ry="500"></rect></clipPath></defs><rect x="-37.5" width="450" fill="#ffffff" y="-37.499999" height="449.999989" fill-opacity="1"></rect><rect x="-37.5" width="450" fill="#ffffff" y="-37.499999" height="449.999989" fill-opacity="1"></rect><g transform="matrix(1, 0, 0, 1, 0, 123)"><g clip-path="url(#c7fe55bf62)"><g clip-path="url(#9c80bbc200)"><g transform="matrix(1, 0, 0, 1, 2, 27)"><g clip-path="url(#4444a57411)"><g clip-path="url(#2e5bd4cb6e)"><path fill="#000000" d="M 0.964844 0.101562 L 365.175781 0.101562 L 365.175781 90.015625 L 0.964844 90.015625 Z M 0.964844 0.101562 " fill-opacity="1" fill-rule="nonzero"></path></g></g></g></g><g clip-path="url(#c9ec69a2b1)"><g clip-path="url(#1e14f8740d)"><g transform="matrix(1, 0, 0, 1, 0, 0)"><g clip-path="url(#1a75f87302)"><g clip-path="url(#2956f88a7d)"><g clip-path="url(#8cd6c77de8)"><path fill="#ffffff" d="M -19.351562 119.058594 L 3.375 0.800781 L 32.289062 6.359375 L 9.5625 124.613281 Z M -19.351562 119.058594 " fill-opacity="1" fill-rule="nonzero"></path></g></g></g></g></g></g><g transform="matrix(1, 0, 0, 1, 25, 40)"><g clip-path="url(#ffafdb8e31)"><g fill="#ffffff" fill-opacity="1"><g transform="translate(0.901663, 50.782512)"><g><path d="M 25.796875 0 L 17.828125 0 L 16.359375 -34.078125 L 9.875 0 L 2.3125 0 L 10.828125 -40.796875 L 22.78125 -40.796875 L 24.046875 -12.21875 L 37.953125 -40.796875 L 50.0625 -40.796875 L 41.515625 0 L 33.859375 0 L 41.90625 -33.828125 Z M 25.796875 0 "></path></g></g></g><g fill="#ffffff" fill-opacity="1"><g transform="translate(49.341667, 50.782512)"><g><path d="M 29.046875 -9.015625 L 12.875 -9.015625 L 7.984375 0 L -0.640625 0 L 22.421875 -40.796875 L 31.75 -40.796875 L 38.375 0 L 30.40625 0 Z M 28.015625 -15.796875 L 25.65625 -32.21875 L 15.796875 -15.796875 Z M 28.015625 -15.796875 "></path></g></g></g><g fill="#ffffff" fill-opacity="1"><g transform="translate(91.465183, 50.782512)"><g><path d="M 31.890625 -14.6875 L 40.34375 -13.40625 C 38.695312 -8.820312 36.222656 -5.320312 32.921875 -2.90625 C 29.617188 -0.488281 25.75 0.71875 21.3125 0.71875 C 16.320312 0.71875 12.421875 -0.78125 9.609375 -3.78125 C 6.796875 -6.789062 5.390625 -11.148438 5.390625 -16.859375 C 5.390625 -21.492188 6.332031 -25.734375 8.21875 -29.578125 C 10.101562 -33.429688 12.710938 -36.378906 16.046875 -38.421875 C 19.390625 -40.460938 23.03125 -41.484375 26.96875 -41.484375 C 31.375 -41.484375 34.941406 -40.300781 37.671875 -37.9375 C 40.398438 -35.570312 42.003906 -32.347656 42.484375 -28.265625 L 34.453125 -27.484375 C 34.003906 -29.859375 33.144531 -31.578125 31.875 -32.640625 C 30.601562 -33.710938 28.910156 -34.25 26.796875 -34.25 C 24.472656 -34.25 22.304688 -33.539062 20.296875 -32.125 C 18.285156 -30.71875 16.675781 -28.515625 15.46875 -25.515625 C 14.257812 -22.523438 13.65625 -19.539062 13.65625 -16.5625 C 13.65625 -13.289062 14.4375 -10.765625 16 -8.984375 C 17.570312 -7.203125 19.53125 -6.3125 21.875 -6.3125 C 24.039062 -6.3125 26.023438 -7.015625 27.828125 -8.421875 C 29.640625 -9.835938 30.992188 -11.925781 31.890625 -14.6875 Z M 31.890625 -14.6875 "></path></g></g></g><g fill="#ffffff" fill-opacity="1"><g transform="translate(133.588699, 50.782512)"><g><path d="M 1.421875 0 L 2.75 -6.421875 L 26.234375 -33.96875 L 7.234375 -33.96875 L 8.65625 -40.796875 L 38.0625 -40.796875 L 36.84375 -34.390625 L 13.109375 -6.671875 C 15.628906 -6.734375 17.082031 -6.765625 17.46875 -6.765625 C 19.25 -6.765625 21.707031 -6.78125 24.84375 -6.8125 L 34.46875 -6.8125 L 33.0625 0 Z M 1.421875 0 "></path></g></g></g><g fill="#ffffff" fill-opacity="1"><g transform="translate(169.367893, 50.782512)"><g><path d="M 29.046875 -9.015625 L 12.875 -9.015625 L 7.984375 0 L -0.640625 0 L 22.421875 -40.796875 L 31.75 -40.796875 L 38.375 0 L 30.40625 0 Z M 28.015625 -15.796875 L 25.65625 -32.21875 L 15.796875 -15.796875 Z M 28.015625 -15.796875 "></path></g></g></g><g fill="#ffffff" fill-opacity="1"><g transform="translate(211.491408, 50.782512)"><g><path d="M 1.96875 0 L 10.515625 -40.796875 L 18.890625 -40.796875 L 10.375 0 Z M 1.96875 0 "></path></g></g></g><g fill="#ffffff" fill-opacity="1"><g transform="translate(228.293289, 50.782512)"><g><path d="M 34.953125 0 L 27.125 0 L 16.109375 -27.40625 L 10.375 0 L 2.5625 0 L 11.078125 -40.796875 L 18.921875 -40.796875 L 29.96875 -13.5 L 35.671875 -40.796875 L 43.46875 -40.796875 Z M 34.953125 0 "></path></g></g></g></g></g><g clip-path="url(#6b699f9558)"><g clip-path="url(#619a6d7d1e)"><g transform="matrix(1, 0, 0, 1, 284, 1)"><g clip-path="url(#525d107cc0)"><g clip-path="url(#a289143e9c)"><g clip-path="url(#e9e54a258c)"><path fill="#ffffff" d="M 0.59375 145.90625 L 28.492188 0.738281 L 35.136719 2.015625 L 7.242188 147.183594 Z M 0.59375 145.90625 " fill-opacity="1" fill-rule="nonzero"></path></g></g></g></g></g></g><g clip-path="url(#07f0caff10)"><g clip-path="url(#97e83d4eea)"><g transform="matrix(1, 0, 0, 1, 298, 5)"><g clip-path="url(#25e3de90c4)"><g clip-path="url(#e25acc6581)"><g clip-path="url(#c4b2172748)"><path fill="#ffffff" d="M 0.390625 145.238281 L 28.289062 0.0703125 L 34.933594 1.347656 L 7.035156 146.515625 Z M 0.390625 145.238281 " fill-opacity="1" fill-rule="nonzero"></path></g></g></g></g></g></g><g clip-path="url(#eab5e5507a)"><g clip-path="url(#d80e74aa3f)"><g transform="matrix(1, 0, 0, 1, 312, 8)"><g clip-path="url(#f0a436dfa4)"><g clip-path="url(#e907b8ff34)"><g clip-path="url(#651b947fab)"><path fill="#ffffff" d="M 0.1875 145.570312 L 28.085938 0.402344 L 34.730469 1.679688 L 6.832031 146.847656 Z M 0.1875 145.570312 " fill-opacity="1" fill-rule="nonzero"></path></g></g></g></g></g></g><g clip-path="url(#220e3fccec)"><g transform="matrix(1, 0, 0, 1, 346, 13)"><g clip-path="url(#bd7993a199)"><g clip-path="url(#f2d123578d)"><path fill="#ff6d4d" d="M 0.726562 114.339844 L 0.726562 0.925781 L 22.859375 0.925781 L 22.859375 114.339844 Z M 0.726562 114.339844 " fill-opacity="1" fill-rule="nonzero"></path></g></g></g></g><g transform="matrix(1, 0, 0, 1, 351, 17)"><g clip-path="url(#8117190421)"><g fill="#ffffff" fill-opacity="1"><g transform="translate(1.151455, 19.581931)"><g><path d="M 9.109375 -13.59375 C 9.367188 -13.59375 9.582031 -13.507812 9.75 -13.34375 C 9.914062 -13.175781 10 -12.96875 10 -12.71875 L 10 -0.875 C 10 -0.632812 9.914062 -0.425781 9.75 -0.25 C 9.582031 -0.0820312 9.367188 0 9.109375 0 C 8.859375 0 8.648438 -0.0820312 8.484375 -0.25 C 8.328125 -0.414062 8.25 -0.625 8.25 -0.875 L 8.25 -1.390625 C 7.945312 -0.953125 7.515625 -0.578125 6.953125 -0.265625 C 6.398438 0.0351562 5.800781 0.1875 5.15625 0.1875 C 4.320312 0.1875 3.566406 -0.0234375 2.890625 -0.453125 C 2.222656 -0.890625 1.691406 -1.488281 1.296875 -2.25 C 0.910156 -3.019531 0.71875 -3.878906 0.71875 -4.828125 C 0.71875 -5.785156 0.910156 -6.644531 1.296875 -7.40625 C 1.679688 -8.175781 2.207031 -8.773438 2.875 -9.203125 C 3.550781 -9.628906 4.296875 -9.84375 5.109375 -9.84375 C 5.753906 -9.84375 6.351562 -9.707031 6.90625 -9.4375 C 7.457031 -9.175781 7.90625 -8.828125 8.25 -8.390625 L 8.25 -12.71875 C 8.25 -12.96875 8.328125 -13.175781 8.484375 -13.34375 C 8.648438 -13.507812 8.859375 -13.59375 9.109375 -13.59375 Z M 5.359375 -1.4375 C 5.941406 -1.4375 6.457031 -1.582031 6.90625 -1.875 C 7.351562 -2.164062 7.703125 -2.566406 7.953125 -3.078125 C 8.203125 -3.597656 8.328125 -4.179688 8.328125 -4.828125 C 8.328125 -5.460938 8.203125 -6.039062 7.953125 -6.5625 C 7.703125 -7.082031 7.351562 -7.488281 6.90625 -7.78125 C 6.457031 -8.082031 5.941406 -8.234375 5.359375 -8.234375 C 4.785156 -8.234375 4.273438 -8.082031 3.828125 -7.78125 C 3.378906 -7.488281 3.03125 -7.082031 2.78125 -6.5625 C 2.53125 -6.039062 2.40625 -5.460938 2.40625 -4.828125 C 2.40625 -4.179688 2.53125 -3.597656 2.78125 -3.078125 C 3.03125 -2.566406 3.378906 -2.164062 3.828125 -1.875 C 4.273438 -1.582031 4.785156 -1.4375 5.359375 -1.4375 Z M 5.359375 -1.4375 "></path></g></g></g><g fill="#ffffff" fill-opacity="1"><g transform="translate(1.551801, 36.334836)"><g><path d="M 9.75 -5.1875 C 9.738281 -4.957031 9.644531 -4.765625 9.46875 -4.609375 C 9.300781 -4.460938 9.101562 -4.390625 8.875 -4.390625 L 2.40625 -4.390625 C 2.488281 -3.492188 2.828125 -2.773438 3.421875 -2.234375 C 4.015625 -1.703125 4.742188 -1.4375 5.609375 -1.4375 C 6.191406 -1.4375 6.664062 -1.519531 7.03125 -1.6875 C 7.40625 -1.863281 7.734375 -2.085938 8.015625 -2.359375 C 8.191406 -2.460938 8.367188 -2.515625 8.546875 -2.515625 C 8.753906 -2.515625 8.925781 -2.441406 9.0625 -2.296875 C 9.207031 -2.148438 9.28125 -1.976562 9.28125 -1.78125 C 9.28125 -1.519531 9.15625 -1.285156 8.90625 -1.078125 C 8.550781 -0.722656 8.078125 -0.421875 7.484375 -0.171875 C 6.898438 0.0664062 6.304688 0.1875 5.703125 0.1875 C 4.703125 0.1875 3.828125 -0.0195312 3.078125 -0.4375 C 2.328125 -0.851562 1.742188 -1.4375 1.328125 -2.1875 C 0.921875 -2.9375 0.71875 -3.78125 0.71875 -4.71875 C 0.71875 -5.75 0.925781 -6.648438 1.34375 -7.421875 C 1.769531 -8.203125 2.328125 -8.800781 3.015625 -9.21875 C 3.710938 -9.632812 4.457031 -9.84375 5.25 -9.84375 C 6.039062 -9.84375 6.773438 -9.640625 7.453125 -9.234375 C 8.140625 -8.835938 8.691406 -8.28125 9.109375 -7.5625 C 9.523438 -6.851562 9.738281 -6.0625 9.75 -5.1875 Z M 5.25 -8.234375 C 4.5625 -8.234375 3.96875 -8.039062 3.46875 -7.65625 C 2.96875 -7.269531 2.640625 -6.671875 2.484375 -5.859375 L 7.90625 -5.859375 L 7.90625 -6.015625 C 7.84375 -6.660156 7.550781 -7.191406 7.03125 -7.609375 C 6.507812 -8.023438 5.914062 -8.234375 5.25 -8.234375 Z M 5.25 -8.234375 "></path></g></g></g><g fill="#ffffff" fill-opacity="1"><g transform="translate(2.398685, 53.087741)"><g><path d="M 0.75 -1.5 C 0.644531 -1.675781 0.59375 -1.84375 0.59375 -2 C 0.59375 -2.25 0.71875 -2.457031 0.96875 -2.625 C 1.09375 -2.707031 1.234375 -2.75 1.390625 -2.75 C 1.617188 -2.75 1.820312 -2.660156 2 -2.484375 C 2.363281 -2.066406 2.757812 -1.753906 3.1875 -1.546875 C 3.613281 -1.335938 4.117188 -1.234375 4.703125 -1.234375 C 5.171875 -1.242188 5.582031 -1.347656 5.9375 -1.546875 C 6.289062 -1.753906 6.46875 -2.082031 6.46875 -2.53125 C 6.46875 -2.945312 6.285156 -3.265625 5.921875 -3.484375 C 5.566406 -3.710938 5.039062 -3.914062 4.34375 -4.09375 C 3.65625 -4.28125 3.082031 -4.472656 2.625 -4.671875 C 2.175781 -4.878906 1.796875 -5.175781 1.484375 -5.5625 C 1.171875 -5.945312 1.015625 -6.453125 1.015625 -7.078125 C 1.015625 -7.628906 1.171875 -8.113281 1.484375 -8.53125 C 1.796875 -8.945312 2.210938 -9.269531 2.734375 -9.5 C 3.253906 -9.726562 3.816406 -9.84375 4.421875 -9.84375 C 5.015625 -9.84375 5.601562 -9.734375 6.1875 -9.515625 C 6.769531 -9.296875 7.242188 -8.957031 7.609375 -8.5 C 7.753906 -8.332031 7.828125 -8.15625 7.828125 -7.96875 C 7.828125 -7.78125 7.726562 -7.59375 7.53125 -7.40625 C 7.40625 -7.289062 7.253906 -7.234375 7.078125 -7.234375 C 6.859375 -7.234375 6.679688 -7.304688 6.546875 -7.453125 C 6.285156 -7.753906 5.96875 -7.984375 5.59375 -8.140625 C 5.21875 -8.296875 4.804688 -8.375 4.359375 -8.375 C 3.890625 -8.375 3.492188 -8.28125 3.171875 -8.09375 C 2.847656 -7.90625 2.6875 -7.582031 2.6875 -7.125 C 2.695312 -6.695312 2.878906 -6.378906 3.234375 -6.171875 C 3.597656 -5.960938 4.15625 -5.757812 4.90625 -5.5625 C 5.550781 -5.394531 6.085938 -5.210938 6.515625 -5.015625 C 6.953125 -4.816406 7.316406 -4.523438 7.609375 -4.140625 C 7.898438 -3.753906 8.046875 -3.25 8.046875 -2.625 C 8.046875 -2.050781 7.878906 -1.550781 7.546875 -1.125 C 7.222656 -0.707031 6.789062 -0.382812 6.25 -0.15625 C 5.71875 0.0703125 5.15625 0.1875 4.5625 0.1875 C 3.789062 0.1875 3.078125 0.0507812 2.421875 -0.21875 C 1.765625 -0.488281 1.207031 -0.914062 0.75 -1.5 Z M 0.75 -1.5 "></path></g></g></g><g fill="#ffffff" fill-opacity="1"><g transform="translate(4.69297, 69.840646)"><g><path d="M 2.953125 -0.875 C 2.953125 -0.632812 2.867188 -0.425781 2.703125 -0.25 C 2.546875 -0.0820312 2.335938 0 2.078125 0 C 1.828125 0 1.617188 -0.0820312 1.453125 -0.25 C 1.296875 -0.425781 1.21875 -0.632812 1.21875 -0.875 L 1.21875 -8.84375 C 1.21875 -9.082031 1.296875 -9.285156 1.453125 -9.453125 C 1.617188 -9.628906 1.828125 -9.71875 2.078125 -9.71875 C 2.335938 -9.71875 2.546875 -9.628906 2.703125 -9.453125 C 2.867188 -9.285156 2.953125 -9.082031 2.953125 -8.84375 Z M 2.078125 -10.9375 C 1.722656 -10.9375 1.46875 -11 1.3125 -11.125 C 1.15625 -11.25 1.078125 -11.453125 1.078125 -11.734375 L 1.078125 -12.03125 C 1.078125 -12.332031 1.160156 -12.539062 1.328125 -12.65625 C 1.492188 -12.78125 1.75 -12.84375 2.09375 -12.84375 C 2.4375 -12.84375 2.679688 -12.773438 2.828125 -12.640625 C 2.984375 -12.515625 3.0625 -12.3125 3.0625 -12.03125 L 3.0625 -11.734375 C 3.0625 -11.441406 2.984375 -11.234375 2.828125 -11.109375 C 2.671875 -10.992188 2.421875 -10.9375 2.078125 -10.9375 Z M 2.078125 -10.9375 "></path></g></g></g><g fill="#ffffff" fill-opacity="1"><g transform="translate(1.028272, 86.593551)"><g><path d="M 9.359375 -9.75 C 9.609375 -9.75 9.816406 -9.664062 9.984375 -9.5 C 10.148438 -9.34375 10.234375 -9.128906 10.234375 -8.859375 L 10.234375 -0.765625 C 10.234375 0.222656 10.019531 1.050781 9.59375 1.71875 C 9.175781 2.382812 8.601562 2.875 7.875 3.1875 C 7.15625 3.507812 6.34375 3.671875 5.4375 3.671875 C 4.945312 3.671875 4.375 3.582031 3.71875 3.40625 C 3.0625 3.238281 2.644531 3.066406 2.46875 2.890625 C 2.082031 2.691406 1.890625 2.445312 1.890625 2.15625 C 1.890625 2.082031 1.914062 1.984375 1.96875 1.859375 C 2.101562 1.546875 2.328125 1.390625 2.640625 1.390625 C 2.804688 1.390625 2.976562 1.425781 3.15625 1.5 C 4.132812 1.882812 4.898438 2.078125 5.453125 2.078125 C 6.429688 2.078125 7.179688 1.835938 7.703125 1.359375 C 8.222656 0.890625 8.484375 0.25 8.484375 -0.5625 L 8.484375 -1.5625 C 8.234375 -1.082031 7.800781 -0.671875 7.1875 -0.328125 C 6.582031 0.015625 5.945312 0.1875 5.28125 0.1875 C 4.425781 0.1875 3.648438 -0.0234375 2.953125 -0.453125 C 2.253906 -0.890625 1.707031 -1.488281 1.3125 -2.25 C 0.914062 -3.019531 0.71875 -3.878906 0.71875 -4.828125 C 0.71875 -5.785156 0.914062 -6.644531 1.3125 -7.40625 C 1.707031 -8.175781 2.25 -8.773438 2.9375 -9.203125 C 3.632812 -9.628906 4.398438 -9.84375 5.234375 -9.84375 C 5.910156 -9.84375 6.539062 -9.691406 7.125 -9.390625 C 7.707031 -9.085938 8.160156 -8.710938 8.484375 -8.265625 L 8.484375 -8.859375 C 8.484375 -9.117188 8.5625 -9.332031 8.71875 -9.5 C 8.882812 -9.664062 9.097656 -9.75 9.359375 -9.75 Z M 5.46875 -1.4375 C 6.070312 -1.4375 6.601562 -1.578125 7.0625 -1.859375 C 7.53125 -2.148438 7.894531 -2.554688 8.15625 -3.078125 C 8.425781 -3.597656 8.5625 -4.179688 8.5625 -4.828125 C 8.5625 -5.484375 8.425781 -6.066406 8.15625 -6.578125 C 7.894531 -7.085938 7.53125 -7.488281 7.0625 -7.78125 C 6.601562 -8.082031 6.070312 -8.234375 5.46875 -8.234375 C 4.882812 -8.234375 4.359375 -8.082031 3.890625 -7.78125 C 3.429688 -7.488281 3.066406 -7.082031 2.796875 -6.5625 C 2.535156 -6.039062 2.40625 -5.460938 2.40625 -4.828125 C 2.40625 -4.191406 2.535156 -3.613281 2.796875 -3.09375 C 3.066406 -2.570312 3.429688 -2.164062 3.890625 -1.875 C 4.359375 -1.582031 4.882812 -1.4375 5.46875 -1.4375 Z M 5.46875 -1.4375 "></path></g></g></g><g fill="#ffffff" fill-opacity="1"><g transform="translate(1.367026, 103.346455)"><g><path d="M 6.203125 -9.84375 C 8.410156 -9.84375 9.515625 -8.519531 9.515625 -5.875 L 9.515625 -0.875 C 9.515625 -0.632812 9.429688 -0.425781 9.265625 -0.25 C 9.097656 -0.0820312 8.890625 0 8.640625 0 C 8.390625 0 8.179688 -0.0820312 8.015625 -0.25 C 7.847656 -0.425781 7.765625 -0.632812 7.765625 -0.875 L 7.765625 -5.859375 C 7.765625 -6.585938 7.597656 -7.164062 7.265625 -7.59375 C 6.941406 -8.019531 6.40625 -8.234375 5.65625 -8.234375 C 5.164062 -8.234375 4.722656 -8.125 4.328125 -7.90625 C 3.929688 -7.695312 3.617188 -7.410156 3.390625 -7.046875 C 3.160156 -6.679688 3.046875 -6.285156 3.046875 -5.859375 L 3.046875 -0.875 C 3.046875 -0.632812 2.960938 -0.425781 2.796875 -0.25 C 2.628906 -0.0820312 2.421875 0 2.171875 0 C 1.910156 0 1.695312 -0.0820312 1.53125 -0.25 C 1.375 -0.414062 1.296875 -0.625 1.296875 -0.875 L 1.296875 -8.75 C 1.296875 -8.988281 1.378906 -9.191406 1.546875 -9.359375 C 1.710938 -9.535156 1.921875 -9.625 2.171875 -9.625 C 2.421875 -9.625 2.628906 -9.535156 2.796875 -9.359375 C 2.960938 -9.191406 3.046875 -8.988281 3.046875 -8.75 L 3.046875 -8.109375 C 3.367188 -8.597656 3.8125 -9.007812 4.375 -9.34375 C 4.945312 -9.675781 5.554688 -9.84375 6.203125 -9.84375 Z M 6.203125 -9.84375 "></path></g></g></g></g></g></g></g></svg></svg></g></g></svg>