<svg xmlns="http://www.w3.org/2000/svg" xmlns:xlink="http://www.w3.org/1999/xlink" width="418" zoomAndPan="magnify" viewBox="0 0 313.5 105.749996" height="141" preserveAspectRatio="xMidYMid meet" version="1.0"><defs><clipPath id="363da16d9a"><path d="M 0.121094 0 L 312.882812 0 L 312.882812 105.5 L 0.121094 105.5 Z M 0.121094 0 " clip-rule="nonzero"/></clipPath><clipPath id="2788468089"><path d="M 0.121094 2.394531 L 312.882812 2.394531 L 312.882812 104.898438 L 0.121094 104.898438 Z M 0.121094 2.394531 " clip-rule="nonzero"/></clipPath><clipPath id="188d81d2fd"><path d="M 0.121094 15.367188 L 306.355469 15.367188 L 306.355469 91.433594 L 0.121094 91.433594 Z M 0.121094 15.367188 " clip-rule="nonzero"/></clipPath><clipPath id="5f09c2bf5a"><path d="M 0.121094 2.394531 L 23 2.394531 L 23 97.917969 L 0.121094 97.917969 Z M 0.121094 2.394531 " clip-rule="nonzero"/></clipPath><clipPath id="e73d0ebdda"><path d="M -20.726562 93.164062 L -1.5 -6.886719 L 22.960938 -2.183594 L 3.734375 97.863281 Z M -20.726562 93.164062 " clip-rule="nonzero"/></clipPath><clipPath id="29f508d539"><path d="M -20.726562 93.164062 L -1.5 -6.886719 L 22.960938 -2.183594 L 3.734375 97.863281 Z M -20.726562 93.164062 " clip-rule="nonzero"/></clipPath><clipPath id="f9c7f22915"><path d="M 236.246094 2.394531 L 265.6875 2.394531 L 265.6875 104.898438 L 236.246094 104.898438 Z M 236.246094 2.394531 " clip-rule="nonzero"/></clipPath><clipPath id="ada43c4024"><path d="M 236.410156 116.722656 L 260.011719 -6.085938 L 265.632812 -5.003906 L 242.035156 117.804688 Z M 236.410156 116.722656 " clip-rule="nonzero"/></clipPath><clipPath id="c23fbbb928"><path d="M 236.410156 116.722656 L 260.011719 -6.085938 L 265.632812 -5.003906 L 242.035156 117.804688 Z M 236.410156 116.722656 " clip-rule="nonzero"/></clipPath><clipPath id="9e8a039470"><path d="M 248.023438 2.394531 L 277.363281 2.394531 L 277.363281 104.898438 L 248.023438 104.898438 Z M 248.023438 2.394531 " clip-rule="nonzero"/></clipPath><clipPath id="068f62d462"><path d="M 248.082031 119.542969 L 271.683594 -3.265625 L 277.304688 -2.1875 L 253.703125 120.621094 Z M 248.082031 119.542969 " clip-rule="nonzero"/></clipPath><clipPath id="fd79d26ba4"><path d="M 248.082031 119.542969 L 271.683594 -3.265625 L 277.304688 -2.1875 L 253.703125 120.621094 Z M 248.082031 119.542969 " clip-rule="nonzero"/></clipPath><clipPath id="18ebc81c7f"><path d="M 259.597656 2.394531 L 289 2.394531 L 289 104.898438 L 259.597656 104.898438 Z M 259.597656 2.394531 " clip-rule="nonzero"/></clipPath><clipPath id="4f3375e062"><path d="M 259.753906 122.359375 L 283.351562 -0.449219 L 288.976562 0.632812 L 265.375 123.441406 Z M 259.753906 122.359375 " clip-rule="nonzero"/></clipPath><clipPath id="9953e3daac"><path d="M 259.753906 122.359375 L 283.351562 -0.449219 L 288.976562 0.632812 L 265.375 123.441406 Z M 259.753906 122.359375 " clip-rule="nonzero"/></clipPath><clipPath id="e00dbd41c6"><path d="M 288.972656 4.230469 L 307.699219 4.230469 L 307.699219 100.167969 L 288.972656 100.167969 Z M 288.972656 4.230469 " clip-rule="nonzero"/></clipPath></defs><g clip-path="url(#363da16d9a)"><path fill="#ffffff" d="M 0.121094 0 L 312.882812 0 L 312.882812 105.5 L 0.121094 105.5 Z M 0.121094 0 " fill-opacity="1" fill-rule="nonzero"/><path fill="#ffffff" d="M 0.121094 0 L 312.882812 0 L 312.882812 105.5 L 0.121094 105.5 Z M 0.121094 0 " fill-opacity="1" fill-rule="nonzero"/></g><g clip-path="url(#2788468089)"><rect x="-31.35" width="376.2" fill="#ffffff" y="-10.575" height="126.899995" fill-opacity="1"/><rect x="-31.35" width="376.2" fill="#ffffff" y="-10.575" height="126.899995" fill-opacity="1"/></g><g clip-path="url(#188d81d2fd)"><path fill="#000000" d="M -1.847656 15.367188 L 306.273438 15.367188 L 306.273438 91.433594 L -1.847656 91.433594 Z M -1.847656 15.367188 " fill-opacity="1" fill-rule="nonzero"/></g><g clip-path="url(#5f09c2bf5a)"><g clip-path="url(#e73d0ebdda)"><g clip-path="url(#29f508d539)"><path fill="#ffffff" d="M -20.726562 93.164062 L -1.5 -6.882812 L 22.960938 -2.179688 L 3.734375 97.863281 Z M -20.726562 93.164062 " fill-opacity="1" fill-rule="nonzero"/></g></g></g><path fill="#ffffff" d="M 39.378906 69.242188 L 32.640625 69.242188 L 31.398438 40.410156 L 25.910156 69.242188 L 19.511719 69.242188 L 26.71875 34.726562 L 36.828125 34.726562 L 37.898438 58.90625 L 49.664062 34.726562 L 59.910156 34.726562 L 52.679688 69.242188 L 46.203125 69.242188 L 53.007812 40.625 Z M 39.378906 69.242188 " fill-opacity="1" fill-rule="nonzero"/><path fill="#ffffff" d="M 83.109375 61.613281 L 69.429688 61.613281 L 65.292969 69.242188 L 57.996094 69.242188 L 77.503906 34.726562 L 85.398438 34.726562 L 91.003906 69.242188 L 84.261719 69.242188 Z M 82.238281 55.878906 L 80.242188 41.984375 L 71.902344 55.878906 Z M 82.238281 55.878906 " fill-opacity="1" fill-rule="nonzero"/><path fill="#ffffff" d="M 121.152344 56.816406 L 128.304688 57.898438 C 126.910156 61.78125 124.816406 64.742188 122.023438 66.78125 C 119.230469 68.828125 115.957031 69.851562 112.203125 69.851562 C 107.980469 69.851562 104.683594 68.582031 102.304688 66.042969 C 99.921875 63.5 98.734375 59.808594 98.734375 54.980469 C 98.734375 51.058594 99.53125 47.46875 101.125 44.21875 C 102.71875 40.960938 104.925781 38.464844 107.75 36.738281 C 110.578125 35.011719 113.65625 34.144531 116.988281 34.144531 C 120.714844 34.144531 123.734375 35.148438 126.042969 37.148438 C 128.351562 39.148438 129.707031 41.875 130.113281 45.328125 L 123.320312 45.988281 C 122.941406 43.980469 122.214844 42.527344 121.140625 41.628906 C 120.0625 40.722656 118.632812 40.265625 116.84375 40.265625 C 114.878906 40.265625 113.042969 40.867188 111.34375 42.0625 C 109.640625 43.253906 108.28125 45.117188 107.261719 47.65625 C 106.234375 50.1875 105.726562 52.710938 105.726562 55.230469 C 105.726562 58 106.386719 60.132812 107.710938 61.640625 C 109.039062 63.148438 110.695312 63.902344 112.679688 63.902344 C 114.511719 63.902344 116.1875 63.304688 117.714844 62.117188 C 119.25 60.921875 120.394531 59.152344 121.152344 56.816406 Z M 121.152344 56.816406 " fill-opacity="1" fill-rule="nonzero"/><path fill="#ffffff" d="M 131.011719 69.242188 L 132.136719 63.808594 L 152.003906 40.503906 L 135.929688 40.503906 L 137.132812 34.726562 L 162.011719 34.726562 L 160.980469 40.148438 L 140.898438 63.597656 C 143.03125 63.542969 144.261719 63.519531 144.589844 63.519531 C 146.09375 63.519531 148.175781 63.503906 150.828125 63.476562 L 158.96875 63.476562 L 157.78125 69.242188 Z M 131.011719 69.242188 " fill-opacity="1" fill-rule="nonzero"/><path fill="#ffffff" d="M 184.652344 61.613281 L 170.972656 61.613281 L 166.832031 69.242188 L 159.535156 69.242188 L 179.046875 34.726562 L 186.9375 34.726562 L 192.542969 69.242188 L 185.800781 69.242188 Z M 183.78125 55.878906 L 181.785156 41.984375 L 173.441406 55.878906 Z M 183.78125 55.878906 " fill-opacity="1" fill-rule="nonzero"/><path fill="#ffffff" d="M 197.382812 69.242188 L 204.613281 34.726562 L 211.695312 34.726562 L 204.492188 69.242188 Z M 197.382812 69.242188 " fill-opacity="1" fill-rule="nonzero"/><path fill="#ffffff" d="M 239.5 69.242188 L 232.878906 69.242188 L 223.558594 46.054688 L 218.707031 69.242188 L 212.097656 69.242188 L 219.300781 34.726562 L 225.9375 34.726562 L 235.285156 57.820312 L 240.109375 34.726562 L 246.703125 34.726562 Z M 239.5 69.242188 " fill-opacity="1" fill-rule="nonzero"/><g clip-path="url(#f9c7f22915)"><g clip-path="url(#ada43c4024)"><g clip-path="url(#c23fbbb928)"><path fill="#ffffff" d="M 236.410156 116.722656 L 260.011719 -6.089844 L 265.632812 -5.007812 L 242.035156 117.804688 Z M 236.410156 116.722656 " fill-opacity="1" fill-rule="nonzero"/></g></g></g><g clip-path="url(#9e8a039470)"><g clip-path="url(#068f62d462)"><g clip-path="url(#fd79d26ba4)"><path fill="#ffffff" d="M 248.082031 119.542969 L 271.683594 -3.269531 L 277.304688 -2.191406 L 253.703125 120.621094 Z M 248.082031 119.542969 " fill-opacity="1" fill-rule="nonzero"/></g></g></g><g clip-path="url(#18ebc81c7f)"><g clip-path="url(#4f3375e062)"><g clip-path="url(#9953e3daac)"><path fill="#ffffff" d="M 259.753906 122.359375 L 283.355469 -0.453125 L 288.976562 0.628906 L 265.375 123.441406 Z M 259.753906 122.359375 " fill-opacity="1" fill-rule="nonzero"/></g></g></g><g clip-path="url(#e00dbd41c6)"><path fill="#ff6d4d" d="M 288.972656 4.222656 L 307.699219 4.222656 L 307.699219 100.167969 L 288.972656 100.167969 Z M 288.972656 4.222656 " fill-opacity="1" fill-rule="nonzero"/></g><path fill="#ffffff" d="M 301.269531 11.886719 C 301.488281 11.886719 301.671875 11.960938 301.8125 12.097656 C 301.949219 12.242188 302.023438 12.417969 302.023438 12.628906 L 302.023438 22.648438 C 302.023438 22.851562 301.949219 23.027344 301.8125 23.175781 C 301.671875 23.320312 301.488281 23.386719 301.269531 23.386719 C 301.058594 23.386719 300.878906 23.320312 300.742188 23.175781 C 300.609375 23.039062 300.542969 22.859375 300.542969 22.648438 L 300.542969 22.210938 C 300.285156 22.582031 299.921875 22.898438 299.445312 23.164062 C 298.976562 23.417969 298.472656 23.546875 297.925781 23.546875 C 297.21875 23.546875 296.582031 23.367188 296.007812 23.003906 C 295.445312 22.632812 294.996094 22.128906 294.660156 21.484375 C 294.332031 20.832031 294.171875 20.105469 294.171875 19.304688 C 294.171875 18.492188 294.332031 17.765625 294.660156 17.121094 C 294.984375 16.472656 295.429688 15.964844 295.996094 15.601562 C 296.566406 15.242188 297.199219 15.058594 297.886719 15.058594 C 298.433594 15.058594 298.9375 15.175781 299.40625 15.402344 C 299.871094 15.625 300.253906 15.917969 300.542969 16.289062 L 300.542969 12.628906 C 300.542969 12.417969 300.609375 12.242188 300.742188 12.097656 C 300.878906 11.960938 301.058594 11.886719 301.269531 11.886719 Z M 298.097656 22.171875 C 298.589844 22.171875 299.027344 22.050781 299.40625 21.800781 C 299.785156 21.558594 300.082031 21.21875 300.292969 20.785156 C 300.503906 20.34375 300.609375 19.851562 300.609375 19.304688 C 300.609375 18.769531 300.503906 18.277344 300.292969 17.835938 C 300.082031 17.398438 299.785156 17.054688 299.40625 16.804688 C 299.027344 16.550781 298.589844 16.421875 298.097656 16.421875 C 297.613281 16.421875 297.179688 16.550781 296.800781 16.804688 C 296.421875 17.054688 296.128906 17.398438 295.917969 17.835938 C 295.707031 18.277344 295.597656 18.769531 295.597656 19.304688 C 295.597656 19.851562 295.707031 20.34375 295.917969 20.785156 C 296.128906 21.21875 296.421875 21.558594 296.800781 21.800781 C 297.179688 22.050781 297.613281 22.171875 298.097656 22.171875 Z M 298.097656 22.171875 " fill-opacity="1" fill-rule="nonzero"/><path fill="#ffffff" d="M 302.152344 33.171875 C 302.140625 33.367188 302.0625 33.53125 301.914062 33.660156 C 301.769531 33.785156 301.601562 33.847656 301.410156 33.847656 L 295.9375 33.847656 C 296.007812 34.605469 296.296875 35.214844 296.796875 35.671875 C 297.300781 36.121094 297.914062 36.34375 298.648438 36.34375 C 299.140625 36.34375 299.539062 36.277344 299.851562 36.132812 C 300.167969 35.984375 300.445312 35.796875 300.683594 35.566406 C 300.832031 35.480469 300.980469 35.433594 301.132812 35.433594 C 301.308594 35.433594 301.453125 35.496094 301.570312 35.617188 C 301.691406 35.742188 301.753906 35.890625 301.753906 36.054688 C 301.753906 36.277344 301.648438 36.472656 301.4375 36.648438 C 301.136719 36.949219 300.738281 37.203125 300.234375 37.414062 C 299.738281 37.617188 299.234375 37.71875 298.726562 37.71875 C 297.882812 37.71875 297.140625 37.542969 296.507812 37.191406 C 295.871094 36.839844 295.375 36.34375 295.027344 35.710938 C 294.683594 35.074219 294.511719 34.363281 294.511719 33.570312 C 294.511719 32.695312 294.6875 31.9375 295.039062 31.28125 C 295.398438 30.621094 295.871094 30.117188 296.453125 29.761719 C 297.042969 29.410156 297.671875 29.234375 298.34375 29.234375 C 299.011719 29.234375 299.632812 29.40625 300.207031 29.75 C 300.789062 30.085938 301.253906 30.554688 301.609375 31.164062 C 301.960938 31.765625 302.140625 32.433594 302.152344 33.171875 Z M 298.34375 30.59375 C 297.761719 30.59375 297.261719 30.761719 296.835938 31.082031 C 296.414062 31.410156 296.136719 31.917969 296.003906 32.605469 L 300.589844 32.605469 L 300.589844 32.472656 C 300.539062 31.925781 300.289062 31.476562 299.851562 31.125 C 299.40625 30.773438 298.90625 30.59375 298.34375 30.59375 Z M 298.34375 30.59375 " fill-opacity="1" fill-rule="nonzero"/><path fill="#ffffff" d="M 295.253906 50.464844 C 295.164062 50.316406 295.121094 50.175781 295.121094 50.042969 C 295.121094 49.832031 295.226562 49.65625 295.4375 49.511719 C 295.542969 49.445312 295.664062 49.40625 295.796875 49.40625 C 295.988281 49.40625 296.160156 49.484375 296.3125 49.632812 C 296.617188 49.984375 296.953125 50.25 297.316406 50.425781 C 297.675781 50.605469 298.101562 50.691406 298.597656 50.691406 C 298.996094 50.683594 299.339844 50.59375 299.640625 50.425781 C 299.941406 50.25 300.089844 49.972656 300.089844 49.59375 C 300.089844 49.242188 299.9375 48.972656 299.628906 48.785156 C 299.328125 48.59375 298.882812 48.421875 298.292969 48.269531 C 297.710938 48.113281 297.226562 47.949219 296.839844 47.78125 C 296.460938 47.605469 296.140625 47.355469 295.875 47.027344 C 295.609375 46.703125 295.476562 46.273438 295.476562 45.746094 C 295.476562 45.28125 295.609375 44.871094 295.875 44.515625 C 296.140625 44.167969 296.488281 43.890625 296.933594 43.695312 C 297.371094 43.503906 297.847656 43.40625 298.359375 43.40625 C 298.863281 43.40625 299.359375 43.5 299.855469 43.683594 C 300.347656 43.867188 300.746094 44.15625 301.054688 44.542969 C 301.179688 44.683594 301.242188 44.832031 301.242188 44.992188 C 301.242188 45.152344 301.15625 45.308594 300.992188 45.46875 C 300.882812 45.566406 300.753906 45.613281 300.605469 45.613281 C 300.421875 45.613281 300.269531 45.554688 300.15625 45.429688 C 299.9375 45.175781 299.667969 44.980469 299.351562 44.847656 C 299.035156 44.714844 298.683594 44.648438 298.308594 44.648438 C 297.910156 44.648438 297.574219 44.726562 297.300781 44.886719 C 297.027344 45.046875 296.894531 45.320312 296.894531 45.707031 C 296.898438 46.070312 297.054688 46.335938 297.355469 46.511719 C 297.664062 46.691406 298.136719 46.863281 298.769531 47.027344 C 299.316406 47.171875 299.769531 47.324219 300.132812 47.492188 C 300.5 47.660156 300.808594 47.90625 301.054688 48.230469 C 301.300781 48.558594 301.425781 48.984375 301.425781 49.511719 C 301.425781 50 301.285156 50.421875 301.003906 50.78125 C 300.730469 51.136719 300.363281 51.410156 299.90625 51.601562 C 299.457031 51.792969 298.980469 51.894531 298.480469 51.894531 C 297.824219 51.894531 297.222656 51.777344 296.667969 51.550781 C 296.113281 51.320312 295.640625 50.960938 295.253906 50.464844 Z M 295.253906 50.464844 " fill-opacity="1" fill-rule="nonzero"/><path fill="#ffffff" d="M 299.058594 65.167969 C 299.058594 65.371094 298.984375 65.546875 298.847656 65.695312 C 298.714844 65.835938 298.535156 65.90625 298.316406 65.90625 C 298.105469 65.90625 297.929688 65.835938 297.789062 65.695312 C 297.65625 65.546875 297.589844 65.371094 297.589844 65.167969 L 297.589844 58.425781 C 297.589844 58.222656 297.65625 58.050781 297.789062 57.910156 C 297.929688 57.761719 298.105469 57.683594 298.316406 57.683594 C 298.535156 57.683594 298.714844 57.761719 298.847656 57.910156 C 298.984375 58.050781 299.058594 58.222656 299.058594 58.425781 Z M 298.316406 56.652344 C 298.015625 56.652344 297.800781 56.601562 297.671875 56.496094 C 297.539062 56.390625 297.472656 56.21875 297.472656 55.980469 L 297.472656 55.730469 C 297.472656 55.472656 297.542969 55.300781 297.683594 55.199219 C 297.824219 55.09375 298.039062 55.042969 298.332031 55.042969 C 298.621094 55.042969 298.828125 55.101562 298.953125 55.214844 C 299.085938 55.320312 299.152344 55.492188 299.152344 55.730469 L 299.152344 55.980469 C 299.152344 56.226562 299.085938 56.402344 298.953125 56.507812 C 298.820312 56.609375 298.609375 56.652344 298.316406 56.652344 Z M 298.316406 56.652344 " fill-opacity="1" fill-rule="nonzero"/><path fill="#ffffff" d="M 301.378906 71.832031 C 301.589844 71.832031 301.765625 71.902344 301.90625 72.042969 C 302.046875 72.175781 302.117188 72.355469 302.117188 72.585938 L 302.117188 79.433594 C 302.117188 80.269531 301.9375 80.96875 301.574219 81.535156 C 301.222656 82.097656 300.738281 82.511719 300.121094 82.777344 C 299.515625 83.046875 298.828125 83.1875 298.058594 83.1875 C 297.644531 83.1875 297.160156 83.109375 296.605469 82.960938 C 296.050781 82.820312 295.695312 82.675781 295.546875 82.527344 C 295.222656 82.355469 295.058594 82.148438 295.058594 81.902344 C 295.058594 81.839844 295.078125 81.757812 295.125 81.652344 C 295.238281 81.386719 295.429688 81.257812 295.695312 81.257812 C 295.832031 81.257812 295.976562 81.285156 296.128906 81.347656 C 296.957031 81.671875 297.605469 81.839844 298.074219 81.839844 C 298.898438 81.839844 299.535156 81.632812 299.976562 81.230469 C 300.414062 80.832031 300.636719 80.292969 300.636719 79.605469 L 300.636719 78.757812 C 300.425781 79.164062 300.058594 79.511719 299.539062 79.800781 C 299.027344 80.09375 298.488281 80.238281 297.925781 80.238281 C 297.203125 80.238281 296.546875 80.058594 295.957031 79.695312 C 295.367188 79.328125 294.902344 78.820312 294.570312 78.175781 C 294.234375 77.527344 294.066406 76.796875 294.066406 75.996094 C 294.066406 75.1875 294.234375 74.457031 294.570312 73.8125 C 294.902344 73.164062 295.363281 72.65625 295.945312 72.292969 C 296.53125 71.933594 297.179688 71.753906 297.886719 71.753906 C 298.460938 71.753906 298.992188 71.882812 299.488281 72.136719 C 299.980469 72.394531 300.363281 72.710938 300.636719 73.085938 L 300.636719 72.585938 C 300.636719 72.367188 300.703125 72.183594 300.835938 72.042969 C 300.972656 71.902344 301.15625 71.832031 301.378906 71.832031 Z M 298.085938 78.863281 C 298.59375 78.863281 299.042969 78.746094 299.433594 78.507812 C 299.832031 78.261719 300.136719 77.917969 300.359375 77.476562 C 300.585938 77.035156 300.703125 76.542969 300.703125 75.996094 C 300.703125 75.441406 300.585938 74.949219 300.359375 74.515625 C 300.136719 74.085938 299.832031 73.746094 299.433594 73.496094 C 299.042969 73.242188 298.59375 73.113281 298.085938 73.113281 C 297.589844 73.113281 297.148438 73.242188 296.75 73.496094 C 296.359375 73.746094 296.054688 74.089844 295.824219 74.527344 C 295.605469 74.972656 295.496094 75.460938 295.496094 75.996094 C 295.496094 76.535156 295.605469 77.023438 295.824219 77.460938 C 296.054688 77.90625 296.359375 78.25 296.75 78.492188 C 297.148438 78.742188 297.589844 78.863281 298.085938 78.863281 Z M 298.085938 78.863281 " fill-opacity="1" fill-rule="nonzero"/><path fill="#ffffff" d="M 298.992188 85.925781 C 300.859375 85.925781 301.796875 87.046875 301.796875 89.28125 L 301.796875 93.511719 C 301.796875 93.71875 301.722656 93.894531 301.585938 94.042969 C 301.441406 94.183594 301.269531 94.253906 301.054688 94.253906 C 300.84375 94.253906 300.667969 94.183594 300.527344 94.042969 C 300.386719 93.894531 300.316406 93.71875 300.316406 93.511719 L 300.316406 89.296875 C 300.316406 88.679688 300.175781 88.191406 299.894531 87.828125 C 299.617188 87.46875 299.164062 87.285156 298.53125 87.285156 C 298.113281 87.285156 297.742188 87.378906 297.40625 87.5625 C 297.070312 87.742188 296.804688 87.984375 296.613281 88.292969 C 296.417969 88.601562 296.324219 88.9375 296.324219 89.296875 L 296.324219 93.511719 C 296.324219 93.71875 296.25 93.894531 296.113281 94.042969 C 295.96875 94.183594 295.796875 94.253906 295.582031 94.253906 C 295.363281 94.253906 295.179688 94.183594 295.042969 94.042969 C 294.910156 93.902344 294.84375 93.722656 294.84375 93.511719 L 294.84375 86.851562 C 294.84375 86.648438 294.914062 86.476562 295.054688 86.335938 C 295.195312 86.1875 295.371094 86.109375 295.582031 86.109375 C 295.796875 86.109375 295.96875 86.1875 296.113281 86.335938 C 296.25 86.476562 296.324219 86.648438 296.324219 86.851562 L 296.324219 87.390625 C 296.59375 86.980469 296.972656 86.632812 297.449219 86.347656 C 297.929688 86.066406 298.445312 85.925781 298.992188 85.925781 Z M 298.992188 85.925781 " fill-opacity="1" fill-rule="nonzero"/></svg>